Coordinates
version=1
nRows=11
nColumns=36
inDegrees=yes

Units are S.I. units (second, meters, Newtons, ...)
If the header above contains a line with 'inDegrees', this indicates whether rotational values are in degrees (yes) or radians (no).

endheader
time	pelvis_tilt	pelvis_list	pelvis_rotation	pelvis_tx	pelvis_ty	pelvis_tz	hip_flexion_r	hip_adduction_r	hip_rotation_r	knee_angle_r	knee_angle_r_beta	ankle_angle_r	subtalar_angle_r	mtp_angle_r	hip_flexion_l	hip_adduction_l	hip_rotation_l	knee_angle_l	knee_angle_l_beta	ankle_angle_l	subtalar_angle_l	mtp_angle_l	lumbar_extension	lumbar_bending	lumbar_rotation	arm_flex_r	arm_add_r	arm_rot_r	elbow_flex_r	pro_sup_r	arm_flex_l	arm_add_l	arm_rot_l	elbow_flex_l	pro_sup_l
      0.00000000	     -0.48199320	      0.65218272	     -4.68902133	      0.97099944	      0.90214416	     -0.32095879	     -4.24645130	     -4.19476146	     -0.28154595	      0.60408927	      0.01054335	      4.14105498	     -4.61320371	     -6.99364423	     -3.13358678	     -1.14355594	     -1.13844320	      1.08772865	      0.01898445	      7.36067050	     -3.95685663	     -6.99364423	     -4.94881388	     -2.19737621	     -1.34902038	     38.85105336	      0.18914178	     47.97277640	    119.16199346	     83.36118628	     36.65862366	     -5.15715239	     55.69671367	    117.09619661	     92.58131822
      0.01666670	     -0.49099884	      1.08245386	     -5.53202872	      0.96992765	      0.90021202	     -0.32028457	     -4.07858036	     -4.87653349	     -1.46083295	      0.52570442	      0.00917527	      6.19178717	     -2.21344108	     -7.41534820	     -3.23106427	     -0.48782475	     -1.97518494	      0.78956992	      0.01378059	      6.54752375	     -5.09245817	     -7.41534820	     -6.16218547	     -2.65960175	      0.43928296	     41.64459200	     -2.03550991	     55.15499934	    124.83379884	     97.75404850	     39.11207060	     -5.49522244	     56.48199525	    121.15919242	    101.77667675
      0.03333330	     -0.75870834	      1.05289532	     -4.88493737	      0.97010437	      0.89978647	     -0.32047678	     -4.00653478	     -4.73275170	     -2.17642964	      0.50371355	      0.00879146	      6.98515408	     -2.16893940	     -7.44019324	     -2.90833974	     -0.57026209	     -1.27028621	      0.75050135	      0.01309872	      6.63257699	     -5.52634943	     -7.44019324	     -6.04659534	     -2.98968551	     -0.60554607	     41.38879438	     -0.14497865	     54.35082336	    125.51367157	    100.87602377	     39.25401654	     -6.11694814	     56.57886941	    122.12044823	    105.31973288
      0.05000000	     -1.06081206	      1.05194824	     -4.45965234	      0.97017538	      0.89865567	     -0.32121379	     -3.75832362	     -4.74656047	     -2.79491411	      0.54006541	      0.00942592	      7.17275946	     -2.35570280	     -7.45867068	     -2.56321742	     -0.56307722	     -1.31068555	      0.75117100	      0.01311041	      6.86390401	     -5.42737862	     -7.45867068	     -5.69564373	     -3.20524570	     -0.99991552	     41.06082437	      0.68162770	     54.33053177	    125.22237444	    101.90661075	     39.11960340	     -5.86666998	     56.55143742	    121.89278696	    105.63037683
      0.06666670	     -1.27911848	      1.09750712	     -4.27957199	      0.97016157	      0.89865976	     -0.32140137	     -3.52156894	     -4.75209102	     -2.98864855	      0.63893079	      0.01115145	      7.36072585	     -2.59453474	     -7.46217345	     -2.32741937	     -0.51410897	     -1.23875667	      0.78849126	      0.01376177	      7.13532113	     -5.31310001	     -7.46217345	     -5.55388563	     -3.49407741	     -1.05549460	     40.63341736	      0.95667773	     54.37488227	    125.07165659	    100.33293552	     38.98170429	     -5.67003998	     56.21383213	    121.83217271	    103.49764909
      0.08333330	     -1.69939561	      1.07264710	     -4.09788671	      0.97062424	      0.89849384	     -0.32168834	     -3.05123417	     -4.68535943	     -3.24219695	      0.82342399	      0.01437146	      7.38883272	     -2.80537836	     -7.48406206	     -1.88805181	     -0.60592520	     -1.13391974	      0.88719415	      0.01548446	      7.45369783	     -5.12162172	     -7.48406206	     -5.18806752	     -3.55912896	     -1.34840767	     40.18847968	      1.19655446	     54.69074778	    124.86790004	    101.96826180	     38.94455885	     -5.56932017	     56.19910186	    122.23552774	    103.88640661
      0.10000000	     -2.06905028	      1.06605293	     -4.06344077	      0.97101504	      0.89812111	     -0.32156405	     -2.59318873	     -4.64851980	     -3.11959378	      1.02559175	      0.01789995	      7.20622176	     -3.36336912	     -7.49107632	     -1.48854772	     -0.67666680	     -1.21344002	      0.98390465	      0.01717238	      7.68737158	     -4.88735266	     -7.49107632	     -4.82957170	     -3.63503823	     -1.39918928	     39.63569956	      1.21306597	     55.07388632	    124.83538284	    101.66900193	     38.91091108	     -5.43862401	     56.43264376	    122.43513161	    102.73638512
      0.11666670	     -2.40679705	      1.05723478	     -3.95900136	      0.97155614	      0.89794880	     -0.32164977	     -2.17773583	     -4.61442289	     -3.23212624	      1.23435545	      0.02154357	      7.18533531	     -3.48810498	     -7.49791959	     -1.10544346	     -0.74096989	     -1.22592234	      1.07331352	      0.01873285	      7.80478833	     -4.75811629	     -7.49791959	     -4.51799175	     -3.68807813	     -1.52304073	     39.20257233	      1.26853790	     55.34873557	    124.93497787	    101.10966055	     38.84496711	     -5.44295859	     56.89606593	    122.42876588	    101.61779448
      0.13333330	     -2.68404243	      1.04176813	     -3.88625317	      0.97191625	      0.90010417	     -0.32109841	     -1.86315385	     -4.57494938	     -3.21312867	      1.39830037	      0.02440495	      7.26924735	     -3.52989324	     -7.49940116	     -0.77143332	     -0.81237448	     -1.36771818	      1.16113106	      0.02026556	      7.93431160	     -4.40008504	     -7.49940116	     -4.34880983	     -3.74866871	     -1.67919590	     38.80542574	      1.19034663	     55.79509786	    124.92338227	    100.66784811	     38.87644345	     -5.78942697	     57.53681125	    122.55624673	    100.71885948
      0.15000000	     -2.98209403	      1.03734549	     -3.85116090	      0.97230788	      0.89709921	     -0.32158620	     -1.54773466	     -4.53146794	     -3.09056092	      1.50808905	      0.02632112	      7.32871196	     -3.71507600	     -7.49984327	     -0.45202930	     -0.84963499	     -1.42505267	      1.16191077	      0.02027917	      7.98984547	     -4.14508706	     -7.49984327	     -4.05815893	     -3.81653779	     -1.83361344	     38.66122140	      1.24859673	     55.74006481	    125.17105893	    100.12324643	     39.08446353	     -6.03379943	     57.43702036	    122.58709052	     99.84885994
      0.16666670	     -3.21685785	      1.02610985	     -3.73210141	      0.97256404	      0.89662639	     -0.32157946	     -1.33356055	     -4.48551480	     -3.02324231	      1.57713746	      0.02752624	      7.39869428	     -3.93202478	     -7.49995490	     -0.18649228	     -0.88681884	     -1.38117955	      1.15830809	      0.02021629	      7.99313800	     -3.98878238	     -7.49995490	     -3.80704290	     -3.86015786	     -2.00712733	     38.60008510	      1.25618244	     55.74905116	    125.37512985	     99.54891191	     39.28012895	     -6.08599267	     57.85555876	    122.81594970	     99.12154932
